<?xml version="1.0" encoding="UTF-8" standalone="no"?>
<svg
   height="48"
   viewBox="0 -960 960 960"
   width="48"
   version="1.1"
   id="svg1"
   xmlns="http://www.w3.org/2000/svg"
   xmlns:svg="http://www.w3.org/2000/svg">
  <defs
     id="defs1" />
  <path
     id="path1"
     d="m 580.18611,-548.79902 -3.08593,1.13281 0.0391,0.0391 z" />
  <path
     d="m 481.23356,-690.75504 c -81.76611,-15.18436 -176.81667,7.47486 -230.20195,67.47387 -44.05664,49.51467 -49.79081,108.5421 -49.79081,126.04465 0,53.99998 18.68233,99.65889 56.01562,136.99219 37.3333,37.33329 82.99225,55.97656 136.99219,55.97656 h 15 v 104.02344 H 201.2408 v 60 h 560 v -60 H 509.24861 V -304.26777 H 741.2408 v -60 H 394.24861 c -36.94463,0 -68.3581,-12.92776 -94.21875,-38.78906 -25.8613,-25.86065 -38.78906,-57.23503 -38.78906,-94.17969 0,-10.5917 1.45173,-60.30704 42.13328,-93.95408 98.69309,-81.62743 237.34473,-19.54516 214.98526,-25.15901"
     id="path26"
     sodipodi:nodetypes="cssssccccccccccscssc" />
  <rect
     style="opacity:1;fill-opacity:1;stroke-width:17.5767"
     id="rect21"
     width="117.55651"
     height="315.54642"
     x="736.4502"
     y="-556.1947"
     transform="rotate(-26.225054)" />
  <rect
     style="fill-opacity:1;stroke-width:12.6083"
     id="rect22-3"
     width="54.571068"
     height="17.296312"
     x="770.29364"
     y="-578.43152"
     transform="rotate(-26.18325)" />
  <circle
     style="opacity:1;fill-opacity:1;stroke-width:20"
     id="path22"
     cx="627.85223"
     cy="-535.37372"
     r="32.5" />
</svg>
